# xmcd CD Database Entry
#
# Track frame offsets:
# 150
# 16637
# 33457
# 62350
# 83610
# 93177
# 118565
# 145767
# 153302
# 165060
# 182965
# 190987
# 207970
# 216900
#
# Disc length: 3070 seconds
#
# Revision: 2
# Processed by: cddbd v1.4PL0 Copyright (c) Steve Scherf et al.
# Submitted via: tcd 2.0b
#
DISCID=a80bfc0e
DTITLE=Doane College Choir - East Coast Tour
DYEAR=1900
DGENRE=
TTITLE0=Vision Of Peace, Part IV
TTITLE1=Selig sind die Toten
TTITLE2=Liebslieder Walzer, Opus 52
TTITLE3=Os Justi
TTITLE4=Hosanna to the Son of David
TTITLE5=By the Waters of Babylon
TTITLE6=Insane et vanae curae
TTITLE7=Let All Things Now Living
TTITLE8=A Spotless Rose
TTITLE9=Jesus, Jesus Rest Your Head
TTITLE10=Brothers Sing On!
TTITLE11=My Lagan Love
TTITLE12=Crossin' Ovah
TTITLE13=Precious Lord
EXTD=
EXTT0=
EXTT1=
EXTT2=
EXTT3=
EXTT4=
EXTT5=
EXTT6=
EXTT7=
EXTT8=
EXTT9=
EXTT10=
EXTT11=
EXTT12=
EXTT13=
PLAYORDER=
